# Blender v2.79 (sub 0) OBJ File: 'text.blend'
# www.blender.org
mtllib e.mtl
o Text
v -0.098066 1.188584 -0.383842
v -0.098066 1.188584 -0.083128
v 0.309211 1.188584 -0.083128
v 0.309211 1.188584 0.045333
v -0.098066 1.188584 0.045333
v -0.098066 1.188584 0.354805
v 0.336947 1.188584 0.354805
v 0.336947 1.188584 0.483266
v -0.241124 1.188584 0.483266
v -0.241124 1.188584 -0.512302
v 0.323809 1.188584 -0.512302
v 0.323809 1.188584 -0.383842
v -0.098066 0.852835 -0.383842
v -0.098066 0.852835 -0.083128
v 0.309211 0.852835 -0.083128
v 0.309211 0.852835 0.045333
v -0.098066 0.852835 0.045333
v -0.098066 0.852835 0.354805
v 0.336947 0.852835 0.354805
v 0.336947 0.852835 0.483266
v -0.241124 0.852835 0.483266
v -0.241124 0.852835 -0.512302
v 0.323809 0.852835 -0.512302
v 0.323809 0.852835 -0.383842
v -0.098066 0.852835 -0.383842
v -0.098066 1.188584 -0.383842
v -0.098066 0.852835 -0.083128
v -0.098066 1.188584 -0.083128
v 0.309211 0.852835 -0.083128
v 0.309211 1.188584 -0.083128
v 0.309211 0.852835 0.045333
v 0.309211 1.188584 0.045333
v -0.098066 0.852835 0.045333
v -0.098066 1.188584 0.045333
v -0.098066 0.852835 0.354805
v -0.098066 1.188584 0.354805
v 0.336947 0.852835 0.354805
v 0.336947 1.188584 0.354805
v 0.336947 0.852835 0.483266
v 0.336947 1.188584 0.483266
v -0.241124 0.852835 0.483266
v -0.241124 1.188584 0.483266
v -0.241124 0.852835 -0.512302
v -0.241124 1.188584 -0.512302
v 0.323809 0.852835 -0.512302
v 0.323809 1.188584 -0.512302
v 0.323809 0.852835 -0.383842
v 0.323809 1.188584 -0.383842
v -0.241124 0.852835 -0.512302
v -0.241124 1.188584 -0.512302
v -0.098066 0.852835 0.045333
v -0.098066 1.188584 0.045333
v 0.309211 0.852835 0.045333
v 0.309211 1.188584 0.045333
v -0.098066 0.852835 0.354805
v -0.098066 1.188584 0.354805
v 0.323809 0.852835 -0.512302
v 0.323809 1.188584 -0.512302
v -0.098066 0.852835 -0.383842
v -0.098066 1.188584 -0.383842
v 0.336947 0.852835 0.354805
v 0.336947 1.188584 0.354805
v -0.098066 0.852835 -0.083128
v -0.098066 1.188584 -0.083128
v 0.323809 0.852835 -0.383842
v 0.323809 1.188584 -0.383842
v 0.336947 0.852835 0.483266
v 0.336947 1.188584 0.483266
v -0.241124 0.852835 0.483266
v -0.241124 1.188584 0.483266
v 0.309211 0.852835 -0.083128
v 0.309211 1.188584 -0.083128
vn 0.0000 1.0000 0.0000
vn 0.0000 -1.0000 0.0000
vn 1.0000 0.0000 0.0000
vn 0.0000 0.0000 -1.0000
vn 0.0000 0.0000 1.0000
vn -1.0000 0.0000 0.0000
usemtl None
s off
f 9//1 1//1 10//1
f 1//1 11//1 10//1
f 1//1 12//1 11//1
f 9//1 2//1 1//1
f 9//1 5//1 2//1
f 5//1 3//1 2//1
f 5//1 4//1 3//1
f 9//1 6//1 5//1
f 9//1 7//1 6//1
f 9//1 8//1 7//1
f 13//2 21//2 22//2
f 23//2 13//2 22//2
f 24//2 13//2 23//2
f 14//2 21//2 13//2
f 17//2 21//2 14//2
f 15//2 17//2 14//2
f 16//2 17//2 15//2
f 18//2 21//2 17//2
f 19//2 21//2 18//2
f 20//2 21//2 19//2
s 1
f 26//3 64//3 63//3 59//3
f 28//4 30//4 71//4 27//4
f 72//3 54//3 31//3 29//3
f 32//5 52//5 51//5 53//5
f 34//3 36//3 55//3 33//3
f 56//4 62//4 37//4 35//4
f 38//3 40//3 67//3 61//3
f 68//5 42//5 69//5 39//5
f 70//6 50//6 49//6 41//6
f 44//4 58//4 45//4 43//4
f 46//3 48//3 65//3 57//3
f 66//5 60//5 25//5 47//5
