# Blender v2.79 (sub 0) OBJ File: 'text.blend'
# www.blender.org
mtllib c.mtl
o Text
v 0.424883 1.188584 -0.307481
v 0.395210 1.188584 -0.322930
v 0.366074 1.188584 -0.336787
v 0.337380 1.188584 -0.349077
v 0.309030 1.188584 -0.359827
v 0.280928 1.188584 -0.369061
v 0.252979 1.188584 -0.376805
v 0.225085 1.188584 -0.383085
v 0.197151 1.188584 -0.387924
v 0.169080 1.188584 -0.391350
v 0.140775 1.188584 -0.393387
v 0.112142 1.188584 -0.394060
v 0.056491 1.188584 -0.390745
v 0.003659 1.188584 -0.381044
v -0.045970 1.188584 -0.365321
v -0.092011 1.188584 -0.343941
v -0.134077 1.188584 -0.317270
v -0.171785 1.188584 -0.285672
v -0.204748 1.188584 -0.249512
v -0.232582 1.188584 -0.209155
v -0.254901 1.188584 -0.164966
v -0.271320 1.188584 -0.117311
v -0.281454 1.188584 -0.066553
v -0.284918 1.188584 -0.013058
v -0.281562 1.188584 0.041299
v -0.271699 1.188584 0.092498
v -0.255631 1.188584 0.140241
v -0.233663 1.188584 0.184228
v -0.206100 1.188584 0.224160
v -0.173245 1.188584 0.259737
v -0.135402 1.188584 0.290662
v -0.092876 1.188584 0.316635
v -0.045971 1.188584 0.337356
v 0.005010 1.188584 0.352528
v 0.059762 1.188584 0.361850
v 0.117981 1.188584 0.365024
v 0.146282 1.188584 0.364206
v 0.174939 1.188584 0.361766
v 0.203879 1.188584 0.357725
v 0.233033 1.188584 0.352102
v 0.262328 1.188584 0.344918
v 0.291694 1.188584 0.336193
v 0.321060 1.188584 0.325948
v 0.350355 1.188584 0.314202
v 0.379509 1.188584 0.300976
v 0.408449 1.188584 0.286290
v 0.437106 1.188584 0.270165
v 0.465407 1.188584 0.252621
v 0.465407 1.188584 0.408817
v 0.440750 1.188584 0.421273
v 0.415586 1.188584 0.433045
v 0.389773 1.188584 0.444057
v 0.363169 1.188584 0.454232
v 0.335633 1.188584 0.463495
v 0.307022 1.188584 0.471770
v 0.277194 1.188584 0.478980
v 0.246008 1.188584 0.485050
v 0.213322 1.188584 0.489903
v 0.178994 1.188584 0.493464
v 0.142881 1.188584 0.495656
v 0.104843 1.188584 0.496404
v 0.015769 1.188584 0.490624
v -0.064708 1.188584 0.474135
v -0.136750 1.188584 0.448208
v -0.200521 1.188584 0.414115
v -0.256182 1.188584 0.373129
v -0.303895 1.188584 0.326522
v -0.343822 1.188584 0.275566
v -0.376127 1.188584 0.221533
v -0.400970 1.188584 0.165696
v -0.418514 1.188584 0.109326
v -0.428922 1.188584 0.053697
v -0.432355 1.188584 0.000080
v -0.427662 1.188584 -0.074045
v -0.413912 1.188584 -0.144276
v -0.391595 1.188584 -0.210128
v -0.361205 1.188584 -0.271114
v -0.323231 1.188584 -0.326748
v -0.278166 1.188584 -0.376543
v -0.226502 1.188584 -0.420012
v -0.168730 1.188584 -0.456668
v -0.105342 1.188584 -0.486026
v -0.036830 1.188584 -0.507598
v 0.036315 1.188584 -0.520898
v 0.113601 1.188584 -0.525440
v 0.139196 1.188584 -0.524919
v 0.164957 1.188584 -0.523338
v 0.190992 1.188584 -0.520673
v 0.217408 1.188584 -0.516897
v 0.244310 1.188584 -0.511987
v 0.271805 1.188584 -0.505915
v 0.299999 1.188584 -0.498658
v 0.328999 1.188584 -0.490189
v 0.358912 1.188584 -0.480483
v 0.389844 1.188584 -0.469516
v 0.421900 1.188584 -0.457260
v 0.455189 1.188584 -0.443692
v 0.455189 1.188584 -0.290416
v 0.424883 0.852835 -0.307481
v 0.395210 0.852835 -0.322930
v 0.366074 0.852835 -0.336787
v 0.337380 0.852835 -0.349077
v 0.309030 0.852835 -0.359827
v 0.280928 0.852835 -0.369061
v 0.252979 0.852835 -0.376805
v 0.225085 0.852835 -0.383085
v 0.197151 0.852835 -0.387924
v 0.169080 0.852835 -0.391350
v 0.140775 0.852835 -0.393387
v 0.112142 0.852835 -0.394060
v 0.056491 0.852835 -0.390745
v 0.003659 0.852835 -0.381044
v -0.045970 0.852835 -0.365321
v -0.092011 0.852835 -0.343941
v -0.134077 0.852835 -0.317270
v -0.171785 0.852835 -0.285672
v -0.204748 0.852835 -0.249512
v -0.232582 0.852835 -0.209155
v -0.254901 0.852835 -0.164966
v -0.271320 0.852835 -0.117311
v -0.281454 0.852835 -0.066553
v -0.284918 0.852835 -0.013058
v -0.281562 0.852835 0.041299
v -0.271699 0.852835 0.092498
v -0.255631 0.852835 0.140241
v -0.233663 0.852835 0.184228
v -0.206100 0.852835 0.224160
v -0.173245 0.852835 0.259737
v -0.135402 0.852835 0.290662
v -0.092876 0.852835 0.316635
v -0.045971 0.852835 0.337356
v 0.005010 0.852835 0.352528
v 0.059762 0.852835 0.361850
v 0.117981 0.852835 0.365024
v 0.146282 0.852835 0.364206
v 0.174939 0.852835 0.361766
v 0.203879 0.852835 0.357725
v 0.233033 0.852835 0.352102
v 0.262328 0.852835 0.344918
v 0.291694 0.852835 0.336193
v 0.321060 0.852835 0.325948
v 0.350355 0.852835 0.314202
v 0.379509 0.852835 0.300976
v 0.408449 0.852835 0.286290
v 0.437106 0.852835 0.270165
v 0.465407 0.852835 0.252621
v 0.465407 0.852835 0.408817
v 0.440750 0.852835 0.421273
v 0.415586 0.852835 0.433045
v 0.389773 0.852835 0.444057
v 0.363169 0.852835 0.454232
v 0.335633 0.852835 0.463495
v 0.307022 0.852835 0.471770
v 0.277194 0.852835 0.478980
v 0.246008 0.852835 0.485050
v 0.213322 0.852835 0.489903
v 0.178994 0.852835 0.493464
v 0.142881 0.852835 0.495656
v 0.104843 0.852835 0.496404
v 0.015769 0.852835 0.490624
v -0.064708 0.852835 0.474135
v -0.136750 0.852835 0.448208
v -0.200521 0.852835 0.414115
v -0.256182 0.852835 0.373129
v -0.303895 0.852835 0.326522
v -0.343822 0.852835 0.275566
v -0.376127 0.852835 0.221533
v -0.400970 0.852835 0.165696
v -0.418514 0.852835 0.109326
v -0.428922 0.852835 0.053697
v -0.432355 0.852835 0.000080
v -0.427662 0.852835 -0.074045
v -0.413912 0.852835 -0.144276
v -0.391595 0.852835 -0.210128
v -0.361205 0.852835 -0.271114
v -0.323231 0.852835 -0.326748
v -0.278166 0.852835 -0.376543
v -0.226502 0.852835 -0.420012
v -0.168730 0.852835 -0.456668
v -0.105342 0.852835 -0.486026
v -0.036830 0.852835 -0.507598
v 0.036315 0.852835 -0.520898
v 0.113601 0.852835 -0.525440
v 0.139196 0.852835 -0.524919
v 0.164957 0.852835 -0.523338
v 0.190992 0.852835 -0.520673
v 0.217408 0.852835 -0.516897
v 0.244310 0.852835 -0.511987
v 0.271805 0.852835 -0.505915
v 0.299999 0.852835 -0.498658
v 0.328999 0.852835 -0.490189
v 0.358912 0.852835 -0.480483
v 0.389844 0.852835 -0.469516
v 0.421900 0.852835 -0.457260
v 0.455189 0.852835 -0.443692
v 0.455189 0.852835 -0.290416
v 0.424883 0.852835 -0.307481
v 0.424883 1.188584 -0.307481
v 0.395210 0.852835 -0.322930
v 0.395210 1.188584 -0.322930
v 0.366074 0.852835 -0.336787
v 0.366074 1.188584 -0.336787
v 0.337380 0.852835 -0.349077
v 0.337380 1.188584 -0.349077
v 0.309030 0.852835 -0.359827
v 0.309030 1.188584 -0.359827
v 0.280928 0.852835 -0.369061
v 0.280928 1.188584 -0.369061
v 0.252979 0.852835 -0.376805
v 0.252979 1.188584 -0.376805
v 0.225085 0.852835 -0.383085
v 0.225085 1.188584 -0.383085
v 0.197151 0.852835 -0.387924
v 0.197151 1.188584 -0.387924
v 0.169080 0.852835 -0.391350
v 0.169080 1.188584 -0.391350
v 0.140775 0.852835 -0.393387
v 0.140775 1.188584 -0.393387
v 0.112142 0.852835 -0.394060
v 0.112142 1.188584 -0.394060
v 0.056491 0.852835 -0.390745
v 0.056491 1.188584 -0.390745
v 0.003659 0.852835 -0.381044
v 0.003659 1.188584 -0.381044
v -0.045970 0.852835 -0.365321
v -0.045970 1.188584 -0.365321
v -0.092011 0.852835 -0.343941
v -0.092011 1.188584 -0.343941
v -0.134077 0.852835 -0.317270
v -0.134077 1.188584 -0.317270
v -0.171785 0.852835 -0.285672
v -0.171785 1.188584 -0.285672
v -0.204748 0.852835 -0.249512
v -0.204748 1.188584 -0.249512
v -0.232582 0.852835 -0.209155
v -0.232582 1.188584 -0.209155
v -0.254901 0.852835 -0.164966
v -0.254901 1.188584 -0.164966
v -0.271320 0.852835 -0.117311
v -0.271320 1.188584 -0.117311
v -0.281454 0.852835 -0.066553
v -0.281454 1.188584 -0.066553
v -0.284918 0.852835 -0.013058
v -0.284918 1.188584 -0.013058
v -0.281562 0.852835 0.041299
v -0.281562 1.188584 0.041299
v -0.271699 0.852835 0.092498
v -0.271699 1.188584 0.092498
v -0.255631 0.852835 0.140241
v -0.255631 1.188584 0.140241
v -0.233663 0.852835 0.184228
v -0.233663 1.188584 0.184228
v -0.206100 0.852835 0.224160
v -0.206100 1.188584 0.224160
v -0.173245 0.852835 0.259737
v -0.173245 1.188584 0.259737
v -0.135402 0.852835 0.290662
v -0.135402 1.188584 0.290662
v -0.092876 0.852835 0.316635
v -0.092876 1.188584 0.316635
v -0.045971 0.852835 0.337356
v -0.045971 1.188584 0.337356
v 0.005010 0.852835 0.352528
v 0.005010 1.188584 0.352528
v 0.059762 0.852835 0.361850
v 0.059762 1.188584 0.361850
v 0.117981 0.852835 0.365024
v 0.117981 1.188584 0.365024
v 0.146282 0.852835 0.364206
v 0.146282 1.188584 0.364206
v 0.174939 0.852835 0.361766
v 0.174939 1.188584 0.361766
v 0.203879 0.852835 0.357725
v 0.203879 1.188584 0.357725
v 0.233033 0.852835 0.352102
v 0.233033 1.188584 0.352102
v 0.262328 0.852835 0.344918
v 0.262328 1.188584 0.344918
v 0.291694 0.852835 0.336193
v 0.291694 1.188584 0.336193
v 0.321060 0.852835 0.325948
v 0.321060 1.188584 0.325948
v 0.350355 0.852835 0.314202
v 0.350355 1.188584 0.314202
v 0.379509 0.852835 0.300976
v 0.379509 1.188584 0.300976
v 0.408449 0.852835 0.286290
v 0.408449 1.188584 0.286290
v 0.437106 0.852835 0.270165
v 0.437106 1.188584 0.270165
v 0.465407 0.852835 0.252621
v 0.465407 1.188584 0.252621
v 0.465407 0.852835 0.408817
v 0.465407 1.188584 0.408817
v 0.440750 0.852835 0.421273
v 0.440750 1.188584 0.421273
v 0.415586 0.852835 0.433045
v 0.415586 1.188584 0.433045
v 0.389773 0.852835 0.444057
v 0.389773 1.188584 0.444057
v 0.363169 0.852835 0.454232
v 0.363169 1.188584 0.454232
v 0.335633 0.852835 0.463495
v 0.335633 1.188584 0.463495
v 0.307022 0.852835 0.471770
v 0.307022 1.188584 0.471770
v 0.277194 0.852835 0.478980
v 0.277194 1.188584 0.478980
v 0.246008 0.852835 0.485050
v 0.246008 1.188584 0.485050
v 0.213322 0.852835 0.489903
v 0.213322 1.188584 0.489903
v 0.178994 0.852835 0.493464
v 0.178994 1.188584 0.493464
v 0.142881 0.852835 0.495656
v 0.142881 1.188584 0.495656
v 0.104843 0.852835 0.496404
v 0.104843 1.188584 0.496404
v 0.015769 0.852835 0.490624
v 0.015769 1.188584 0.490624
v -0.064708 0.852835 0.474135
v -0.064708 1.188584 0.474135
v -0.136750 0.852835 0.448208
v -0.136750 1.188584 0.448208
v -0.200521 0.852835 0.414115
v -0.200521 1.188584 0.414115
v -0.256182 0.852835 0.373129
v -0.256182 1.188584 0.373129
v -0.303895 0.852835 0.326522
v -0.303895 1.188584 0.326522
v -0.343822 0.852835 0.275566
v -0.343822 1.188584 0.275566
v -0.376127 0.852835 0.221533
v -0.376127 1.188584 0.221533
v -0.400970 0.852835 0.165696
v -0.400970 1.188584 0.165696
v -0.418514 0.852835 0.109326
v -0.418514 1.188584 0.109326
v -0.428922 0.852835 0.053697
v -0.428922 1.188584 0.053697
v -0.432355 0.852835 0.000080
v -0.432355 1.188584 0.000080
v -0.427662 0.852835 -0.074045
v -0.427662 1.188584 -0.074045
v -0.413912 0.852835 -0.144276
v -0.413912 1.188584 -0.144276
v -0.391595 0.852835 -0.210128
v -0.391595 1.188584 -0.210128
v -0.361205 0.852835 -0.271114
v -0.361205 1.188584 -0.271114
v -0.323231 0.852835 -0.326748
v -0.323231 1.188584 -0.326748
v -0.278166 0.852835 -0.376543
v -0.278166 1.188584 -0.376543
v -0.226502 0.852835 -0.420012
v -0.226502 1.188584 -0.420012
v -0.168730 0.852835 -0.456668
v -0.168730 1.188584 -0.456668
v -0.105342 0.852835 -0.486026
v -0.105342 1.188584 -0.486026
v -0.036830 0.852835 -0.507598
v -0.036830 1.188584 -0.507598
v 0.036315 0.852835 -0.520898
v 0.036315 1.188584 -0.520898
v 0.113601 0.852835 -0.525440
v 0.113601 1.188584 -0.525440
v 0.139196 0.852835 -0.524919
v 0.139196 1.188584 -0.524919
v 0.164957 0.852835 -0.523338
v 0.164957 1.188584 -0.523338
v 0.190992 0.852835 -0.520673
v 0.190992 1.188584 -0.520673
v 0.217408 0.852835 -0.516897
v 0.217408 1.188584 -0.516897
v 0.244310 0.852835 -0.511987
v 0.244310 1.188584 -0.511987
v 0.271805 0.852835 -0.505915
v 0.271805 1.188584 -0.505915
v 0.299999 0.852835 -0.498658
v 0.299999 1.188584 -0.498658
v 0.328999 0.852835 -0.490189
v 0.328999 1.188584 -0.490189
v 0.358912 0.852835 -0.480483
v 0.358912 1.188584 -0.480483
v 0.389844 0.852835 -0.469516
v 0.389844 1.188584 -0.469516
v 0.421900 0.852835 -0.457260
v 0.421900 1.188584 -0.457260
v 0.455189 0.852835 -0.443692
v 0.455189 1.188584 -0.443692
v 0.455189 0.852835 -0.290416
v 0.455189 1.188584 -0.290416
v 0.455189 0.852835 -0.290416
v 0.455189 1.188584 -0.290416
v 0.465407 0.852835 0.252621
v 0.465407 1.188584 0.252621
v 0.455189 0.852835 -0.443692
v 0.455189 1.188584 -0.443692
v 0.465407 0.852835 0.408817
v 0.465407 1.188584 0.408817
vn 0.0000 1.0000 0.0000
vn 0.0000 1.0000 0.0001
vn 0.0000 1.0000 -0.0001
vn 0.0000 -1.0000 0.0001
vn 0.0000 -1.0000 -0.0001
vn 0.0000 -1.0000 -0.0000
vn -0.4763 0.0000 0.8793
vn -0.4457 0.0000 0.8952
vn -0.4117 0.0000 0.9113
vn -0.3742 0.0000 0.9273
vn -0.3334 0.0000 0.9427
vn -0.2897 0.0000 0.9571
vn -0.2434 0.0000 0.9699
vn -0.1952 0.0000 0.9807
vn -0.1459 0.0000 0.9893
vn -0.0965 0.0000 0.9953
vn -0.0476 0.0000 0.9988
vn 0.0180 0.0000 0.9998
vn 0.1202 0.0000 0.9927
vn 0.2418 0.0000 0.9703
vn 0.3623 0.0000 0.9320
vn 0.4793 0.0000 0.8776
vn 0.5902 0.0000 0.8073
vn 0.6922 0.0000 0.7217
vn 0.7829 0.0000 0.6221
vn 0.8599 0.0000 0.5105
vn 0.9211 0.0000 0.3892
vn 0.9652 0.0000 0.2613
vn 0.9914 0.0000 0.1305
vn 1.0000 0.0000 0.0015
vn 0.9921 0.0000 -0.1256
vn 0.9670 0.0000 -0.2546
vn 0.9234 0.0000 -0.3838
vn 0.8609 0.0000 -0.5087
vn 0.7808 0.0000 -0.6248
vn 0.6854 0.0000 -0.7281
vn 0.5783 0.0000 -0.8158
vn 0.4637 0.0000 -0.8860
vn 0.3453 0.0000 -0.9384
vn 0.2269 0.0000 -0.9739
vn 0.1113 0.0000 -0.9938
vn 0.0128 0.0000 -0.9999
vn -0.0569 0.0000 -0.9984
vn -0.1116 0.0000 -0.9937
vn -0.1639 0.0000 -0.9864
vn -0.2138 0.0000 -0.9769
vn -0.2615 0.0000 -0.9652
vn -0.3072 0.0000 -0.9516
vn -0.3509 0.0000 -0.9364
vn -0.3927 0.0000 -0.9196
vn -0.4329 0.0000 -0.9014
vn -0.4715 0.0000 -0.8818
vn -0.5087 0.0000 -0.8609
vn -0.5269 0.0000 -0.8499
vn 1.0000 0.0000 0.0000
vn 0.4509 0.0000 0.8925
vn 0.4374 0.0000 0.8993
vn 0.4081 0.0000 0.9129
vn 0.3749 0.0000 0.9271
vn 0.3381 0.0000 0.9411
vn 0.2984 0.0000 0.9544
vn 0.2564 0.0000 0.9666
vn 0.2130 0.0000 0.9770
vn 0.1690 0.0000 0.9856
vn 0.1250 0.0000 0.9921
vn 0.0819 0.0000 0.9966
vn 0.0401 0.0000 0.9992
vn -0.0226 0.0000 0.9997
vn -0.1330 0.0000 0.9911
vn -0.2704 0.0000 0.9627
vn -0.4061 0.0000 0.9138
vn -0.5336 0.0000 0.8457
vn -0.6474 0.0000 0.7621
vn -0.7446 0.0000 0.6675
vn -0.8243 0.0000 0.5661
vn -0.8876 0.0000 0.4606
vn -0.9358 0.0000 0.3524
vn -0.9705 0.0000 0.2409
vn -0.9922 0.0000 0.1241
vn -1.0000 0.0000 0.0003
vn -0.9918 0.0000 -0.1279
vn -0.9664 0.0000 -0.2571
vn -0.9232 0.0000 -0.3844
vn -0.8625 0.0000 -0.5061
vn -0.7855 0.0000 -0.6188
vn -0.6942 0.0000 -0.7197
vn -0.5911 0.0000 -0.8066
vn -0.4790 0.0000 -0.8778
vn -0.3610 0.0000 -0.9325
vn -0.2401 0.0000 -0.9707
vn -0.1190 0.0000 -0.9929
vn -0.0192 0.0000 -0.9998
vn 0.0408 0.0000 -0.9991
vn 0.0815 0.0000 -0.9966
vn 0.1217 0.0000 -0.9926
vn 0.1605 0.0000 -0.9870
vn 0.1976 0.0000 -0.9803
vn 0.2325 0.0000 -0.9726
vn 0.2648 0.0000 -0.9643
vn 0.2945 0.0000 -0.9556
vn 0.3214 0.0000 -0.9469
vn 0.3457 0.0000 -0.9384
vn 0.3673 0.0000 -0.9301
vn 0.3774 0.0000 -0.9260
vn -0.4906 0.0000 0.8713
usemtl None
s off
f 84//1 86//1 85//1
f 84//2 87//2 86//2
f 84//3 88//3 87//3
f 83//1 88//1 84//1
f 83//1 89//1 88//1
f 83//1 90//1 89//1
f 83//1 91//1 90//1
f 82//1 91//1 83//1
f 82//1 92//1 91//1
f 82//1 93//1 92//1
f 82//1 94//1 93//1
f 81//1 94//1 82//1
f 81//1 95//1 94//1
f 81//1 96//1 95//1
f 81//1 97//1 96//1
f 80//1 97//1 81//1
f 80//1 10//1 97//1
f 10//1 9//1 97//1
f 9//1 8//1 97//1
f 8//1 7//1 97//1
f 7//1 6//1 97//1
f 6//1 5//1 97//1
f 5//1 4//1 97//1
f 4//1 3//1 97//1
f 3//1 2//1 97//1
f 2//1 1//1 97//1
f 1//1 98//1 97//1
f 79//1 12//1 80//1
f 12//3 11//3 80//3
f 11//1 10//1 80//1
f 79//1 13//1 12//1
f 79//1 14//1 13//1
f 79//1 15//1 14//1
f 78//1 15//1 79//1
f 78//1 16//1 15//1
f 78//1 17//1 16//1
f 77//1 17//1 78//1
f 77//1 18//1 17//1
f 77//1 19//1 18//1
f 76//1 19//1 77//1
f 76//1 20//1 19//1
f 75//1 20//1 76//1
f 75//1 21//1 20//1
f 75//1 22//1 21//1
f 74//1 22//1 75//1
f 74//1 23//1 22//1
f 73//1 23//1 74//1
f 73//1 24//1 23//1
f 73//1 25//1 24//1
f 72//1 25//1 73//1
f 72//1 26//1 25//1
f 71//1 26//1 72//1
f 71//1 27//1 26//1
f 70//1 27//1 71//1
f 70//1 28//1 27//1
f 69//1 28//1 70//1
f 69//1 29//1 28//1
f 68//1 29//1 69//1
f 68//1 30//1 29//1
f 47//1 49//1 48//1
f 68//1 31//1 30//1
f 46//1 49//1 47//1
f 67//1 31//1 68//1
f 45//1 49//1 46//1
f 67//1 32//1 31//1
f 44//1 49//1 45//1
f 43//1 49//1 44//1
f 67//1 33//1 32//1
f 42//1 49//1 43//1
f 66//1 33//1 67//1
f 41//1 49//1 42//1
f 66//1 34//1 33//1
f 40//1 49//1 41//1
f 39//1 49//1 40//1
f 66//1 35//1 34//1
f 38//1 49//1 39//1
f 37//1 49//1 38//1
f 66//1 36//1 35//1
f 36//1 49//1 37//1
f 66//1 49//1 36//1
f 65//1 49//1 66//1
f 65//1 50//1 49//1
f 64//1 50//1 65//1
f 64//1 51//1 50//1
f 64//1 52//1 51//1
f 64//1 53//1 52//1
f 63//1 53//1 64//1
f 63//1 54//1 53//1
f 63//1 55//1 54//1
f 63//1 56//1 55//1
f 62//1 56//1 63//1
f 62//1 57//1 56//1
f 62//1 58//1 57//1
f 62//1 59//1 58//1
f 61//1 59//1 62//1
f 61//3 60//3 59//3
f 184//4 182//4 183//4
f 185//5 182//5 184//5
f 186//4 182//4 185//4
f 186//6 181//6 182//6
f 187//6 181//6 186//6
f 188//6 181//6 187//6
f 189//6 181//6 188//6
f 189//6 180//6 181//6
f 190//6 180//6 189//6
f 191//6 180//6 190//6
f 192//6 180//6 191//6
f 192//6 179//6 180//6
f 193//6 179//6 192//6
f 194//6 179//6 193//6
f 195//6 179//6 194//6
f 195//6 178//6 179//6
f 108//6 178//6 195//6
f 107//6 108//6 195//6
f 106//6 107//6 195//6
f 105//6 106//6 195//6
f 104//6 105//6 195//6
f 103//6 104//6 195//6
f 102//6 103//6 195//6
f 101//6 102//6 195//6
f 100//6 101//6 195//6
f 99//6 100//6 195//6
f 196//6 99//6 195//6
f 110//6 177//6 178//6
f 109//6 110//6 178//6
f 108//6 109//6 178//6
f 111//6 177//6 110//6
f 112//6 177//6 111//6
f 113//6 177//6 112//6
f 113//6 176//6 177//6
f 114//6 176//6 113//6
f 115//6 176//6 114//6
f 115//6 175//6 176//6
f 116//6 175//6 115//6
f 117//6 175//6 116//6
f 117//6 174//6 175//6
f 118//6 174//6 117//6
f 118//6 173//6 174//6
f 119//6 173//6 118//6
f 120//6 173//6 119//6
f 120//6 172//6 173//6
f 121//6 172//6 120//6
f 121//6 171//6 172//6
f 122//6 171//6 121//6
f 123//6 171//6 122//6
f 123//6 170//6 171//6
f 124//6 170//6 123//6
f 124//6 169//6 170//6
f 125//6 169//6 124//6
f 125//6 168//6 169//6
f 126//6 168//6 125//6
f 126//6 167//6 168//6
f 127//6 167//6 126//6
f 127//6 166//6 167//6
f 128//6 166//6 127//6
f 147//6 145//6 146//6
f 129//6 166//6 128//6
f 147//6 144//6 145//6
f 129//6 165//6 166//6
f 147//6 143//6 144//6
f 130//6 165//6 129//6
f 147//6 142//6 143//6
f 147//6 141//6 142//6
f 131//6 165//6 130//6
f 147//6 140//6 141//6
f 131//6 164//6 165//6
f 147//6 139//6 140//6
f 132//6 164//6 131//6
f 147//6 138//6 139//6
f 147//6 137//6 138//6
f 133//6 164//6 132//6
f 147//6 136//6 137//6
f 147//6 135//6 136//6
f 134//6 164//6 133//6
f 147//6 134//6 135//6
f 147//6 164//6 134//6
f 147//6 163//6 164//6
f 148//6 163//6 147//6
f 148//6 162//6 163//6
f 149//6 162//6 148//6
f 150//6 162//6 149//6
f 151//6 162//6 150//6
f 151//6 161//6 162//6
f 152//6 161//6 151//6
f 153//6 161//6 152//6
f 154//6 161//6 153//6
f 154//6 160//6 161//6
f 155//6 160//6 154//6
f 156//6 160//6 155//6
f 157//6 160//6 156//6
f 157//6 159//6 160//6
f 158//6 159//6 157//6
s 1
f 198//7 200//8 199//8 197//7
f 200//8 202//9 201//9 199//8
f 202//9 204//10 203//10 201//9
f 204//10 206//11 205//11 203//10
f 206//11 208//12 207//12 205//11
f 208//12 210//13 209//13 207//12
f 210//13 212//14 211//14 209//13
f 212//14 214//15 213//15 211//14
f 214//15 216//16 215//16 213//15
f 216//16 218//17 217//17 215//16
f 218//17 220//18 219//18 217//17
f 220//18 222//19 221//19 219//18
f 222//19 224//20 223//20 221//19
f 224//20 226//21 225//21 223//20
f 226//21 228//22 227//22 225//21
f 228//22 230//23 229//23 227//22
f 230//23 232//24 231//24 229//23
f 232//24 234//25 233//25 231//24
f 234//25 236//26 235//26 233//25
f 236//26 238//27 237//27 235//26
f 238//27 240//28 239//28 237//27
f 240//28 242//29 241//29 239//28
f 242//29 244//30 243//30 241//29
f 244//30 246//31 245//31 243//30
f 246//31 248//32 247//32 245//31
f 248//32 250//33 249//33 247//32
f 250//33 252//34 251//34 249//33
f 252//34 254//35 253//35 251//34
f 254//35 256//36 255//36 253//35
f 256//36 258//37 257//37 255//36
f 258//37 260//38 259//38 257//37
f 260//38 262//39 261//39 259//38
f 262//39 264//40 263//40 261//39
f 264//40 266//41 265//41 263//40
f 266//41 268//42 267//42 265//41
f 268//42 270//43 269//43 267//42
f 270//43 272//44 271//44 269//43
f 272//44 274//45 273//45 271//44
f 274//45 276//46 275//46 273//45
f 276//46 278//47 277//47 275//46
f 278//47 280//48 279//48 277//47
f 280//48 282//49 281//49 279//48
f 282//49 284//50 283//50 281//49
f 284//50 286//51 285//51 283//50
f 286//51 288//52 287//52 285//51
f 288//52 290//53 289//53 287//52
f 290//53 292//54 395//54 289//53
f 396//55 400//55 293//55 291//55
f 294//56 296//57 295//57 399//56
f 296//57 298//58 297//58 295//57
f 298//58 300//59 299//59 297//58
f 300//59 302//60 301//60 299//59
f 302//60 304//61 303//61 301//60
f 304//61 306//62 305//62 303//61
f 306//62 308//63 307//63 305//62
f 308//63 310//64 309//64 307//63
f 310//64 312//65 311//65 309//64
f 312//65 314//66 313//66 311//65
f 314//66 316//67 315//67 313//66
f 316//67 318//68 317//68 315//67
f 318//68 320//69 319//69 317//68
f 320//69 322//70 321//70 319//69
f 322//70 324//71 323//71 321//70
f 324//71 326//72 325//72 323//71
f 326//72 328//73 327//73 325//72
f 328//73 330//74 329//74 327//73
f 330//74 332//75 331//75 329//74
f 332//75 334//76 333//76 331//75
f 334//76 336//77 335//77 333//76
f 336//77 338//78 337//78 335//77
f 338//78 340//79 339//79 337//78
f 340//79 342//80 341//80 339//79
f 342//80 344//81 343//81 341//80
f 344//81 346//82 345//82 343//81
f 346//82 348//83 347//83 345//82
f 348//83 350//84 349//84 347//83
f 350//84 352//85 351//85 349//84
f 352//85 354//86 353//86 351//85
f 354//86 356//87 355//87 353//86
f 356//87 358//88 357//88 355//87
f 358//88 360//89 359//89 357//88
f 360//89 362//90 361//90 359//89
f 362//90 364//91 363//91 361//90
f 364//91 366//92 365//92 363//91
f 366//92 368//93 367//93 365//92
f 368//93 370//94 369//94 367//93
f 370//94 372//95 371//95 369//94
f 372//95 374//96 373//96 371//95
f 374//96 376//97 375//97 373//96
f 376//97 378//98 377//98 375//97
f 378//98 380//99 379//99 377//98
f 380//99 382//100 381//100 379//99
f 382//100 384//101 383//101 381//100
f 384//101 386//102 385//102 383//101
f 386//102 388//103 387//103 385//102
f 388//103 398//104 397//104 387//103
f 390//55 394//55 393//55 389//55
f 392//105 198//7 197//7 391//105
